%TF.GenerationSoftware,KiCad,Pcbnew,8.0.5*%
%TF.CreationDate,2025-11-17T13:13:02-07:00*%
%TF.ProjectId,PROTOT~1,50524f54-4f54-47e3-912e-6b696361645f,rev?*%
%TF.SameCoordinates,Original*%
%TF.FileFunction,Copper,L1,Top*%
%TF.FilePolarity,Positive*%
%FSLAX46Y46*%
G04 Gerber Fmt 4.6, Leading zero omitted, Abs format (unit mm)*
G04 Created by KiCad (PCBNEW 8.0.5) date 2025-11-17 13:13:02*
%MOMM*%
%LPD*%
G01*
G04 APERTURE LIST*
%ADD10C,0.300000*%
%TA.AperFunction,NonConductor*%
%ADD11C,0.300000*%
%TD*%
G04 APERTURE END LIST*
D10*
D11*
X100911653Y-93828139D02*
X100840225Y-93899568D01*
X100840225Y-93899568D02*
X100625939Y-93970996D01*
X100625939Y-93970996D02*
X100483082Y-93970996D01*
X100483082Y-93970996D02*
X100268796Y-93899568D01*
X100268796Y-93899568D02*
X100125939Y-93756710D01*
X100125939Y-93756710D02*
X100054510Y-93613853D01*
X100054510Y-93613853D02*
X99983082Y-93328139D01*
X99983082Y-93328139D02*
X99983082Y-93113853D01*
X99983082Y-93113853D02*
X100054510Y-92828139D01*
X100054510Y-92828139D02*
X100125939Y-92685282D01*
X100125939Y-92685282D02*
X100268796Y-92542425D01*
X100268796Y-92542425D02*
X100483082Y-92470996D01*
X100483082Y-92470996D02*
X100625939Y-92470996D01*
X100625939Y-92470996D02*
X100840225Y-92542425D01*
X100840225Y-92542425D02*
X100911653Y-92613853D01*
X102197368Y-93970996D02*
X102197368Y-93185282D01*
X102197368Y-93185282D02*
X102125939Y-93042425D01*
X102125939Y-93042425D02*
X101983082Y-92970996D01*
X101983082Y-92970996D02*
X101697368Y-92970996D01*
X101697368Y-92970996D02*
X101554510Y-93042425D01*
X102197368Y-93899568D02*
X102054510Y-93970996D01*
X102054510Y-93970996D02*
X101697368Y-93970996D01*
X101697368Y-93970996D02*
X101554510Y-93899568D01*
X101554510Y-93899568D02*
X101483082Y-93756710D01*
X101483082Y-93756710D02*
X101483082Y-93613853D01*
X101483082Y-93613853D02*
X101554510Y-93470996D01*
X101554510Y-93470996D02*
X101697368Y-93399568D01*
X101697368Y-93399568D02*
X102054510Y-93399568D01*
X102054510Y-93399568D02*
X102197368Y-93328139D01*
X103125939Y-93970996D02*
X102983082Y-93899568D01*
X102983082Y-93899568D02*
X102911653Y-93756710D01*
X102911653Y-93756710D02*
X102911653Y-92470996D01*
X103554510Y-92970996D02*
X103911653Y-93970996D01*
X103911653Y-93970996D02*
X104268796Y-92970996D01*
X104840224Y-93970996D02*
X104840224Y-92970996D01*
X104840224Y-92470996D02*
X104768796Y-92542425D01*
X104768796Y-92542425D02*
X104840224Y-92613853D01*
X104840224Y-92613853D02*
X104911653Y-92542425D01*
X104911653Y-92542425D02*
X104840224Y-92470996D01*
X104840224Y-92470996D02*
X104840224Y-92613853D01*
X105554510Y-92970996D02*
X105554510Y-93970996D01*
X105554510Y-93113853D02*
X105625939Y-93042425D01*
X105625939Y-93042425D02*
X105768796Y-92970996D01*
X105768796Y-92970996D02*
X105983082Y-92970996D01*
X105983082Y-92970996D02*
X106125939Y-93042425D01*
X106125939Y-93042425D02*
X106197368Y-93185282D01*
X106197368Y-93185282D02*
X106197368Y-93970996D01*
X108054510Y-93970996D02*
X108054510Y-92470996D01*
X108054510Y-93185282D02*
X108911653Y-93185282D01*
X108911653Y-93970996D02*
X108911653Y-92470996D01*
X110268797Y-93970996D02*
X110268797Y-93185282D01*
X110268797Y-93185282D02*
X110197368Y-93042425D01*
X110197368Y-93042425D02*
X110054511Y-92970996D01*
X110054511Y-92970996D02*
X109768797Y-92970996D01*
X109768797Y-92970996D02*
X109625939Y-93042425D01*
X110268797Y-93899568D02*
X110125939Y-93970996D01*
X110125939Y-93970996D02*
X109768797Y-93970996D01*
X109768797Y-93970996D02*
X109625939Y-93899568D01*
X109625939Y-93899568D02*
X109554511Y-93756710D01*
X109554511Y-93756710D02*
X109554511Y-93613853D01*
X109554511Y-93613853D02*
X109625939Y-93470996D01*
X109625939Y-93470996D02*
X109768797Y-93399568D01*
X109768797Y-93399568D02*
X110125939Y-93399568D01*
X110125939Y-93399568D02*
X110268797Y-93328139D01*
X110983082Y-93970996D02*
X110983082Y-92970996D01*
X110983082Y-93256710D02*
X111054511Y-93113853D01*
X111054511Y-93113853D02*
X111125940Y-93042425D01*
X111125940Y-93042425D02*
X111268797Y-92970996D01*
X111268797Y-92970996D02*
X111411654Y-92970996D01*
X112554511Y-93970996D02*
X112554511Y-92470996D01*
X112554511Y-93899568D02*
X112411653Y-93970996D01*
X112411653Y-93970996D02*
X112125939Y-93970996D01*
X112125939Y-93970996D02*
X111983082Y-93899568D01*
X111983082Y-93899568D02*
X111911653Y-93828139D01*
X111911653Y-93828139D02*
X111840225Y-93685282D01*
X111840225Y-93685282D02*
X111840225Y-93256710D01*
X111840225Y-93256710D02*
X111911653Y-93113853D01*
X111911653Y-93113853D02*
X111983082Y-93042425D01*
X111983082Y-93042425D02*
X112125939Y-92970996D01*
X112125939Y-92970996D02*
X112411653Y-92970996D01*
X112411653Y-92970996D02*
X112554511Y-93042425D01*
X113268796Y-93970996D02*
X113268796Y-92970996D01*
X113268796Y-92470996D02*
X113197368Y-92542425D01*
X113197368Y-92542425D02*
X113268796Y-92613853D01*
X113268796Y-92613853D02*
X113340225Y-92542425D01*
X113340225Y-92542425D02*
X113268796Y-92470996D01*
X113268796Y-92470996D02*
X113268796Y-92613853D01*
X113983082Y-92970996D02*
X113983082Y-93970996D01*
X113983082Y-93113853D02*
X114054511Y-93042425D01*
X114054511Y-93042425D02*
X114197368Y-92970996D01*
X114197368Y-92970996D02*
X114411654Y-92970996D01*
X114411654Y-92970996D02*
X114554511Y-93042425D01*
X114554511Y-93042425D02*
X114625940Y-93185282D01*
X114625940Y-93185282D02*
X114625940Y-93970996D01*
X115983083Y-92970996D02*
X115983083Y-94185282D01*
X115983083Y-94185282D02*
X115911654Y-94328139D01*
X115911654Y-94328139D02*
X115840225Y-94399568D01*
X115840225Y-94399568D02*
X115697368Y-94470996D01*
X115697368Y-94470996D02*
X115483083Y-94470996D01*
X115483083Y-94470996D02*
X115340225Y-94399568D01*
X115983083Y-93899568D02*
X115840225Y-93970996D01*
X115840225Y-93970996D02*
X115554511Y-93970996D01*
X115554511Y-93970996D02*
X115411654Y-93899568D01*
X115411654Y-93899568D02*
X115340225Y-93828139D01*
X115340225Y-93828139D02*
X115268797Y-93685282D01*
X115268797Y-93685282D02*
X115268797Y-93256710D01*
X115268797Y-93256710D02*
X115340225Y-93113853D01*
X115340225Y-93113853D02*
X115411654Y-93042425D01*
X115411654Y-93042425D02*
X115554511Y-92970996D01*
X115554511Y-92970996D02*
X115840225Y-92970996D01*
X115840225Y-92970996D02*
X115983083Y-93042425D01*
X100054510Y-96385912D02*
X100054510Y-95385912D01*
X100054510Y-95671626D02*
X100125939Y-95528769D01*
X100125939Y-95528769D02*
X100197368Y-95457341D01*
X100197368Y-95457341D02*
X100340225Y-95385912D01*
X100340225Y-95385912D02*
X100483082Y-95385912D01*
X101197367Y-96385912D02*
X101054510Y-96314484D01*
X101054510Y-96314484D02*
X100983081Y-96243055D01*
X100983081Y-96243055D02*
X100911653Y-96100198D01*
X100911653Y-96100198D02*
X100911653Y-95671626D01*
X100911653Y-95671626D02*
X100983081Y-95528769D01*
X100983081Y-95528769D02*
X101054510Y-95457341D01*
X101054510Y-95457341D02*
X101197367Y-95385912D01*
X101197367Y-95385912D02*
X101411653Y-95385912D01*
X101411653Y-95385912D02*
X101554510Y-95457341D01*
X101554510Y-95457341D02*
X101625939Y-95528769D01*
X101625939Y-95528769D02*
X101697367Y-95671626D01*
X101697367Y-95671626D02*
X101697367Y-96100198D01*
X101697367Y-96100198D02*
X101625939Y-96243055D01*
X101625939Y-96243055D02*
X101554510Y-96314484D01*
X101554510Y-96314484D02*
X101411653Y-96385912D01*
X101411653Y-96385912D02*
X101197367Y-96385912D01*
X102340224Y-96385912D02*
X102340224Y-94885912D01*
X102340224Y-95457341D02*
X102483082Y-95385912D01*
X102483082Y-95385912D02*
X102768796Y-95385912D01*
X102768796Y-95385912D02*
X102911653Y-95457341D01*
X102911653Y-95457341D02*
X102983082Y-95528769D01*
X102983082Y-95528769D02*
X103054510Y-95671626D01*
X103054510Y-95671626D02*
X103054510Y-96100198D01*
X103054510Y-96100198D02*
X102983082Y-96243055D01*
X102983082Y-96243055D02*
X102911653Y-96314484D01*
X102911653Y-96314484D02*
X102768796Y-96385912D01*
X102768796Y-96385912D02*
X102483082Y-96385912D01*
X102483082Y-96385912D02*
X102340224Y-96314484D01*
X103911653Y-96385912D02*
X103768796Y-96314484D01*
X103768796Y-96314484D02*
X103697367Y-96243055D01*
X103697367Y-96243055D02*
X103625939Y-96100198D01*
X103625939Y-96100198D02*
X103625939Y-95671626D01*
X103625939Y-95671626D02*
X103697367Y-95528769D01*
X103697367Y-95528769D02*
X103768796Y-95457341D01*
X103768796Y-95457341D02*
X103911653Y-95385912D01*
X103911653Y-95385912D02*
X104125939Y-95385912D01*
X104125939Y-95385912D02*
X104268796Y-95457341D01*
X104268796Y-95457341D02*
X104340225Y-95528769D01*
X104340225Y-95528769D02*
X104411653Y-95671626D01*
X104411653Y-95671626D02*
X104411653Y-96100198D01*
X104411653Y-96100198D02*
X104340225Y-96243055D01*
X104340225Y-96243055D02*
X104268796Y-96314484D01*
X104268796Y-96314484D02*
X104125939Y-96385912D01*
X104125939Y-96385912D02*
X103911653Y-96385912D01*
X104840225Y-95385912D02*
X105411653Y-95385912D01*
X105054510Y-94885912D02*
X105054510Y-96171626D01*
X105054510Y-96171626D02*
X105125939Y-96314484D01*
X105125939Y-96314484D02*
X105268796Y-96385912D01*
X105268796Y-96385912D02*
X105411653Y-96385912D01*
X105911653Y-96385912D02*
X105911653Y-95385912D01*
X105911653Y-94885912D02*
X105840225Y-94957341D01*
X105840225Y-94957341D02*
X105911653Y-95028769D01*
X105911653Y-95028769D02*
X105983082Y-94957341D01*
X105983082Y-94957341D02*
X105911653Y-94885912D01*
X105911653Y-94885912D02*
X105911653Y-95028769D01*
X107268797Y-96314484D02*
X107125939Y-96385912D01*
X107125939Y-96385912D02*
X106840225Y-96385912D01*
X106840225Y-96385912D02*
X106697368Y-96314484D01*
X106697368Y-96314484D02*
X106625939Y-96243055D01*
X106625939Y-96243055D02*
X106554511Y-96100198D01*
X106554511Y-96100198D02*
X106554511Y-95671626D01*
X106554511Y-95671626D02*
X106625939Y-95528769D01*
X106625939Y-95528769D02*
X106697368Y-95457341D01*
X106697368Y-95457341D02*
X106840225Y-95385912D01*
X106840225Y-95385912D02*
X107125939Y-95385912D01*
X107125939Y-95385912D02*
X107268797Y-95457341D01*
X107840225Y-96314484D02*
X107983082Y-96385912D01*
X107983082Y-96385912D02*
X108268796Y-96385912D01*
X108268796Y-96385912D02*
X108411653Y-96314484D01*
X108411653Y-96314484D02*
X108483082Y-96171626D01*
X108483082Y-96171626D02*
X108483082Y-96100198D01*
X108483082Y-96100198D02*
X108411653Y-95957341D01*
X108411653Y-95957341D02*
X108268796Y-95885912D01*
X108268796Y-95885912D02*
X108054511Y-95885912D01*
X108054511Y-95885912D02*
X107911653Y-95814484D01*
X107911653Y-95814484D02*
X107840225Y-95671626D01*
X107840225Y-95671626D02*
X107840225Y-95600198D01*
X107840225Y-95600198D02*
X107911653Y-95457341D01*
X107911653Y-95457341D02*
X108054511Y-95385912D01*
X108054511Y-95385912D02*
X108268796Y-95385912D01*
X108268796Y-95385912D02*
X108411653Y-95457341D01*
X110840225Y-96314484D02*
X110697368Y-96385912D01*
X110697368Y-96385912D02*
X110411654Y-96385912D01*
X110411654Y-96385912D02*
X110268796Y-96314484D01*
X110268796Y-96314484D02*
X110197368Y-96171626D01*
X110197368Y-96171626D02*
X110197368Y-95600198D01*
X110197368Y-95600198D02*
X110268796Y-95457341D01*
X110268796Y-95457341D02*
X110411654Y-95385912D01*
X110411654Y-95385912D02*
X110697368Y-95385912D01*
X110697368Y-95385912D02*
X110840225Y-95457341D01*
X110840225Y-95457341D02*
X110911654Y-95600198D01*
X110911654Y-95600198D02*
X110911654Y-95743055D01*
X110911654Y-95743055D02*
X110197368Y-95885912D01*
X111554510Y-95385912D02*
X111554510Y-96385912D01*
X111554510Y-95528769D02*
X111625939Y-95457341D01*
X111625939Y-95457341D02*
X111768796Y-95385912D01*
X111768796Y-95385912D02*
X111983082Y-95385912D01*
X111983082Y-95385912D02*
X112125939Y-95457341D01*
X112125939Y-95457341D02*
X112197368Y-95600198D01*
X112197368Y-95600198D02*
X112197368Y-96385912D01*
X113554511Y-95385912D02*
X113554511Y-96600198D01*
X113554511Y-96600198D02*
X113483082Y-96743055D01*
X113483082Y-96743055D02*
X113411653Y-96814484D01*
X113411653Y-96814484D02*
X113268796Y-96885912D01*
X113268796Y-96885912D02*
X113054511Y-96885912D01*
X113054511Y-96885912D02*
X112911653Y-96814484D01*
X113554511Y-96314484D02*
X113411653Y-96385912D01*
X113411653Y-96385912D02*
X113125939Y-96385912D01*
X113125939Y-96385912D02*
X112983082Y-96314484D01*
X112983082Y-96314484D02*
X112911653Y-96243055D01*
X112911653Y-96243055D02*
X112840225Y-96100198D01*
X112840225Y-96100198D02*
X112840225Y-95671626D01*
X112840225Y-95671626D02*
X112911653Y-95528769D01*
X112911653Y-95528769D02*
X112983082Y-95457341D01*
X112983082Y-95457341D02*
X113125939Y-95385912D01*
X113125939Y-95385912D02*
X113411653Y-95385912D01*
X113411653Y-95385912D02*
X113554511Y-95457341D01*
X114268796Y-96385912D02*
X114268796Y-95385912D01*
X114268796Y-94885912D02*
X114197368Y-94957341D01*
X114197368Y-94957341D02*
X114268796Y-95028769D01*
X114268796Y-95028769D02*
X114340225Y-94957341D01*
X114340225Y-94957341D02*
X114268796Y-94885912D01*
X114268796Y-94885912D02*
X114268796Y-95028769D01*
X114983082Y-95385912D02*
X114983082Y-96385912D01*
X114983082Y-95528769D02*
X115054511Y-95457341D01*
X115054511Y-95457341D02*
X115197368Y-95385912D01*
X115197368Y-95385912D02*
X115411654Y-95385912D01*
X115411654Y-95385912D02*
X115554511Y-95457341D01*
X115554511Y-95457341D02*
X115625940Y-95600198D01*
X115625940Y-95600198D02*
X115625940Y-96385912D01*
X116911654Y-96314484D02*
X116768797Y-96385912D01*
X116768797Y-96385912D02*
X116483083Y-96385912D01*
X116483083Y-96385912D02*
X116340225Y-96314484D01*
X116340225Y-96314484D02*
X116268797Y-96171626D01*
X116268797Y-96171626D02*
X116268797Y-95600198D01*
X116268797Y-95600198D02*
X116340225Y-95457341D01*
X116340225Y-95457341D02*
X116483083Y-95385912D01*
X116483083Y-95385912D02*
X116768797Y-95385912D01*
X116768797Y-95385912D02*
X116911654Y-95457341D01*
X116911654Y-95457341D02*
X116983083Y-95600198D01*
X116983083Y-95600198D02*
X116983083Y-95743055D01*
X116983083Y-95743055D02*
X116268797Y-95885912D01*
X118197368Y-96314484D02*
X118054511Y-96385912D01*
X118054511Y-96385912D02*
X117768797Y-96385912D01*
X117768797Y-96385912D02*
X117625939Y-96314484D01*
X117625939Y-96314484D02*
X117554511Y-96171626D01*
X117554511Y-96171626D02*
X117554511Y-95600198D01*
X117554511Y-95600198D02*
X117625939Y-95457341D01*
X117625939Y-95457341D02*
X117768797Y-95385912D01*
X117768797Y-95385912D02*
X118054511Y-95385912D01*
X118054511Y-95385912D02*
X118197368Y-95457341D01*
X118197368Y-95457341D02*
X118268797Y-95600198D01*
X118268797Y-95600198D02*
X118268797Y-95743055D01*
X118268797Y-95743055D02*
X117554511Y-95885912D01*
X118911653Y-96385912D02*
X118911653Y-95385912D01*
X118911653Y-95671626D02*
X118983082Y-95528769D01*
X118983082Y-95528769D02*
X119054511Y-95457341D01*
X119054511Y-95457341D02*
X119197368Y-95385912D01*
X119197368Y-95385912D02*
X119340225Y-95385912D01*
X100697368Y-98729400D02*
X100554510Y-98800828D01*
X100554510Y-98800828D02*
X100268796Y-98800828D01*
X100268796Y-98800828D02*
X100125939Y-98729400D01*
X100125939Y-98729400D02*
X100054510Y-98657971D01*
X100054510Y-98657971D02*
X99983082Y-98515114D01*
X99983082Y-98515114D02*
X99983082Y-98086542D01*
X99983082Y-98086542D02*
X100054510Y-97943685D01*
X100054510Y-97943685D02*
X100125939Y-97872257D01*
X100125939Y-97872257D02*
X100268796Y-97800828D01*
X100268796Y-97800828D02*
X100554510Y-97800828D01*
X100554510Y-97800828D02*
X100697368Y-97872257D01*
X101983082Y-98800828D02*
X101983082Y-98015114D01*
X101983082Y-98015114D02*
X101911653Y-97872257D01*
X101911653Y-97872257D02*
X101768796Y-97800828D01*
X101768796Y-97800828D02*
X101483082Y-97800828D01*
X101483082Y-97800828D02*
X101340224Y-97872257D01*
X101983082Y-98729400D02*
X101840224Y-98800828D01*
X101840224Y-98800828D02*
X101483082Y-98800828D01*
X101483082Y-98800828D02*
X101340224Y-98729400D01*
X101340224Y-98729400D02*
X101268796Y-98586542D01*
X101268796Y-98586542D02*
X101268796Y-98443685D01*
X101268796Y-98443685D02*
X101340224Y-98300828D01*
X101340224Y-98300828D02*
X101483082Y-98229400D01*
X101483082Y-98229400D02*
X101840224Y-98229400D01*
X101840224Y-98229400D02*
X101983082Y-98157971D01*
X102911653Y-98800828D02*
X102768796Y-98729400D01*
X102768796Y-98729400D02*
X102697367Y-98586542D01*
X102697367Y-98586542D02*
X102697367Y-97300828D01*
X103340224Y-97800828D02*
X103697367Y-98800828D01*
X103697367Y-98800828D02*
X104054510Y-97800828D01*
X104625938Y-98800828D02*
X104625938Y-97800828D01*
X104625938Y-97300828D02*
X104554510Y-97372257D01*
X104554510Y-97372257D02*
X104625938Y-97443685D01*
X104625938Y-97443685D02*
X104697367Y-97372257D01*
X104697367Y-97372257D02*
X104625938Y-97300828D01*
X104625938Y-97300828D02*
X104625938Y-97443685D01*
X105340224Y-97800828D02*
X105340224Y-98800828D01*
X105340224Y-97943685D02*
X105411653Y-97872257D01*
X105411653Y-97872257D02*
X105554510Y-97800828D01*
X105554510Y-97800828D02*
X105768796Y-97800828D01*
X105768796Y-97800828D02*
X105911653Y-97872257D01*
X105911653Y-97872257D02*
X105983082Y-98015114D01*
X105983082Y-98015114D02*
X105983082Y-98800828D01*
X107340225Y-98729400D02*
X107197367Y-98800828D01*
X107197367Y-98800828D02*
X106911653Y-98800828D01*
X106911653Y-98800828D02*
X106768796Y-98729400D01*
X106768796Y-98729400D02*
X106697367Y-98657971D01*
X106697367Y-98657971D02*
X106625939Y-98515114D01*
X106625939Y-98515114D02*
X106625939Y-98086542D01*
X106625939Y-98086542D02*
X106697367Y-97943685D01*
X106697367Y-97943685D02*
X106768796Y-97872257D01*
X106768796Y-97872257D02*
X106911653Y-97800828D01*
X106911653Y-97800828D02*
X107197367Y-97800828D01*
X107197367Y-97800828D02*
X107340225Y-97872257D01*
X107983081Y-98800828D02*
X107983081Y-97300828D01*
X108625939Y-98800828D02*
X108625939Y-98015114D01*
X108625939Y-98015114D02*
X108554510Y-97872257D01*
X108554510Y-97872257D02*
X108411653Y-97800828D01*
X108411653Y-97800828D02*
X108197367Y-97800828D01*
X108197367Y-97800828D02*
X108054510Y-97872257D01*
X108054510Y-97872257D02*
X107983081Y-97943685D01*
X109554510Y-98800828D02*
X109411653Y-98729400D01*
X109411653Y-98729400D02*
X109340224Y-98657971D01*
X109340224Y-98657971D02*
X109268796Y-98515114D01*
X109268796Y-98515114D02*
X109268796Y-98086542D01*
X109268796Y-98086542D02*
X109340224Y-97943685D01*
X109340224Y-97943685D02*
X109411653Y-97872257D01*
X109411653Y-97872257D02*
X109554510Y-97800828D01*
X109554510Y-97800828D02*
X109768796Y-97800828D01*
X109768796Y-97800828D02*
X109911653Y-97872257D01*
X109911653Y-97872257D02*
X109983082Y-97943685D01*
X109983082Y-97943685D02*
X110054510Y-98086542D01*
X110054510Y-98086542D02*
X110054510Y-98515114D01*
X110054510Y-98515114D02*
X109983082Y-98657971D01*
X109983082Y-98657971D02*
X109911653Y-98729400D01*
X109911653Y-98729400D02*
X109768796Y-98800828D01*
X109768796Y-98800828D02*
X109554510Y-98800828D01*
X111340225Y-98729400D02*
X111197367Y-98800828D01*
X111197367Y-98800828D02*
X110911653Y-98800828D01*
X110911653Y-98800828D02*
X110768796Y-98729400D01*
X110768796Y-98729400D02*
X110697367Y-98657971D01*
X110697367Y-98657971D02*
X110625939Y-98515114D01*
X110625939Y-98515114D02*
X110625939Y-98086542D01*
X110625939Y-98086542D02*
X110697367Y-97943685D01*
X110697367Y-97943685D02*
X110768796Y-97872257D01*
X110768796Y-97872257D02*
X110911653Y-97800828D01*
X110911653Y-97800828D02*
X111197367Y-97800828D01*
X111197367Y-97800828D02*
X111340225Y-97872257D01*
X112197367Y-98800828D02*
X112054510Y-98729400D01*
X112054510Y-98729400D02*
X111983081Y-98657971D01*
X111983081Y-98657971D02*
X111911653Y-98515114D01*
X111911653Y-98515114D02*
X111911653Y-98086542D01*
X111911653Y-98086542D02*
X111983081Y-97943685D01*
X111983081Y-97943685D02*
X112054510Y-97872257D01*
X112054510Y-97872257D02*
X112197367Y-97800828D01*
X112197367Y-97800828D02*
X112411653Y-97800828D01*
X112411653Y-97800828D02*
X112554510Y-97872257D01*
X112554510Y-97872257D02*
X112625939Y-97943685D01*
X112625939Y-97943685D02*
X112697367Y-98086542D01*
X112697367Y-98086542D02*
X112697367Y-98515114D01*
X112697367Y-98515114D02*
X112625939Y-98657971D01*
X112625939Y-98657971D02*
X112554510Y-98729400D01*
X112554510Y-98729400D02*
X112411653Y-98800828D01*
X112411653Y-98800828D02*
X112197367Y-98800828D01*
X113554510Y-98800828D02*
X113411653Y-98729400D01*
X113411653Y-98729400D02*
X113340224Y-98586542D01*
X113340224Y-98586542D02*
X113340224Y-97300828D01*
X114768796Y-98800828D02*
X114768796Y-98015114D01*
X114768796Y-98015114D02*
X114697367Y-97872257D01*
X114697367Y-97872257D02*
X114554510Y-97800828D01*
X114554510Y-97800828D02*
X114268796Y-97800828D01*
X114268796Y-97800828D02*
X114125938Y-97872257D01*
X114768796Y-98729400D02*
X114625938Y-98800828D01*
X114625938Y-98800828D02*
X114268796Y-98800828D01*
X114268796Y-98800828D02*
X114125938Y-98729400D01*
X114125938Y-98729400D02*
X114054510Y-98586542D01*
X114054510Y-98586542D02*
X114054510Y-98443685D01*
X114054510Y-98443685D02*
X114125938Y-98300828D01*
X114125938Y-98300828D02*
X114268796Y-98229400D01*
X114268796Y-98229400D02*
X114625938Y-98229400D01*
X114625938Y-98229400D02*
X114768796Y-98157971D01*
X115268796Y-97800828D02*
X115840224Y-97800828D01*
X115483081Y-97300828D02*
X115483081Y-98586542D01*
X115483081Y-98586542D02*
X115554510Y-98729400D01*
X115554510Y-98729400D02*
X115697367Y-98800828D01*
X115697367Y-98800828D02*
X115840224Y-98800828D01*
X116911653Y-98729400D02*
X116768796Y-98800828D01*
X116768796Y-98800828D02*
X116483082Y-98800828D01*
X116483082Y-98800828D02*
X116340224Y-98729400D01*
X116340224Y-98729400D02*
X116268796Y-98586542D01*
X116268796Y-98586542D02*
X116268796Y-98015114D01*
X116268796Y-98015114D02*
X116340224Y-97872257D01*
X116340224Y-97872257D02*
X116483082Y-97800828D01*
X116483082Y-97800828D02*
X116768796Y-97800828D01*
X116768796Y-97800828D02*
X116911653Y-97872257D01*
X116911653Y-97872257D02*
X116983082Y-98015114D01*
X116983082Y-98015114D02*
X116983082Y-98157971D01*
X116983082Y-98157971D02*
X116268796Y-98300828D01*
X117625938Y-98800828D02*
X117625938Y-97800828D01*
X117625938Y-98086542D02*
X117697367Y-97943685D01*
X117697367Y-97943685D02*
X117768796Y-97872257D01*
X117768796Y-97872257D02*
X117911653Y-97800828D01*
X117911653Y-97800828D02*
X118054510Y-97800828D01*
X119197367Y-98800828D02*
X119197367Y-98015114D01*
X119197367Y-98015114D02*
X119125938Y-97872257D01*
X119125938Y-97872257D02*
X118983081Y-97800828D01*
X118983081Y-97800828D02*
X118697367Y-97800828D01*
X118697367Y-97800828D02*
X118554509Y-97872257D01*
X119197367Y-98729400D02*
X119054509Y-98800828D01*
X119054509Y-98800828D02*
X118697367Y-98800828D01*
X118697367Y-98800828D02*
X118554509Y-98729400D01*
X118554509Y-98729400D02*
X118483081Y-98586542D01*
X118483081Y-98586542D02*
X118483081Y-98443685D01*
X118483081Y-98443685D02*
X118554509Y-98300828D01*
X118554509Y-98300828D02*
X118697367Y-98229400D01*
X118697367Y-98229400D02*
X119054509Y-98229400D01*
X119054509Y-98229400D02*
X119197367Y-98157971D01*
X119911652Y-98800828D02*
X119911652Y-97800828D01*
X119911652Y-97300828D02*
X119840224Y-97372257D01*
X119840224Y-97372257D02*
X119911652Y-97443685D01*
X119911652Y-97443685D02*
X119983081Y-97372257D01*
X119983081Y-97372257D02*
X119911652Y-97300828D01*
X119911652Y-97300828D02*
X119911652Y-97443685D01*
X120625938Y-97800828D02*
X120625938Y-98800828D01*
X120625938Y-97943685D02*
X120697367Y-97872257D01*
X120697367Y-97872257D02*
X120840224Y-97800828D01*
X120840224Y-97800828D02*
X121054510Y-97800828D01*
X121054510Y-97800828D02*
X121197367Y-97872257D01*
X121197367Y-97872257D02*
X121268796Y-98015114D01*
X121268796Y-98015114D02*
X121268796Y-98800828D01*
X122697367Y-97300828D02*
X121983081Y-97300828D01*
X121983081Y-97300828D02*
X121911653Y-98015114D01*
X121911653Y-98015114D02*
X121983081Y-97943685D01*
X121983081Y-97943685D02*
X122125939Y-97872257D01*
X122125939Y-97872257D02*
X122483081Y-97872257D01*
X122483081Y-97872257D02*
X122625939Y-97943685D01*
X122625939Y-97943685D02*
X122697367Y-98015114D01*
X122697367Y-98015114D02*
X122768796Y-98157971D01*
X122768796Y-98157971D02*
X122768796Y-98515114D01*
X122768796Y-98515114D02*
X122697367Y-98657971D01*
X122697367Y-98657971D02*
X122625939Y-98729400D01*
X122625939Y-98729400D02*
X122483081Y-98800828D01*
X122483081Y-98800828D02*
X122125939Y-98800828D01*
X122125939Y-98800828D02*
X121983081Y-98729400D01*
X121983081Y-98729400D02*
X121911653Y-98657971D01*
X124197367Y-98800828D02*
X123340224Y-98800828D01*
X123768795Y-98800828D02*
X123768795Y-97300828D01*
X123768795Y-97300828D02*
X123625938Y-97515114D01*
X123625938Y-97515114D02*
X123483081Y-97657971D01*
X123483081Y-97657971D02*
X123340224Y-97729400D01*
X124697366Y-97300828D02*
X125625938Y-97300828D01*
X125625938Y-97300828D02*
X125125938Y-97872257D01*
X125125938Y-97872257D02*
X125340223Y-97872257D01*
X125340223Y-97872257D02*
X125483081Y-97943685D01*
X125483081Y-97943685D02*
X125554509Y-98015114D01*
X125554509Y-98015114D02*
X125625938Y-98157971D01*
X125625938Y-98157971D02*
X125625938Y-98515114D01*
X125625938Y-98515114D02*
X125554509Y-98657971D01*
X125554509Y-98657971D02*
X125483081Y-98729400D01*
X125483081Y-98729400D02*
X125340223Y-98800828D01*
X125340223Y-98800828D02*
X124911652Y-98800828D01*
X124911652Y-98800828D02*
X124768795Y-98729400D01*
X124768795Y-98729400D02*
X124697366Y-98657971D01*
X127197366Y-98086542D02*
X127125937Y-98015114D01*
X127125937Y-98015114D02*
X126983080Y-97943685D01*
X126983080Y-97943685D02*
X126840223Y-97943685D01*
X126840223Y-97943685D02*
X126697366Y-98015114D01*
X126697366Y-98015114D02*
X126625937Y-98086542D01*
X126625937Y-98086542D02*
X126554509Y-98229400D01*
X126554509Y-98229400D02*
X126554509Y-98372257D01*
X126554509Y-98372257D02*
X126625937Y-98515114D01*
X126625937Y-98515114D02*
X126697366Y-98586542D01*
X126697366Y-98586542D02*
X126840223Y-98657971D01*
X126840223Y-98657971D02*
X126983080Y-98657971D01*
X126983080Y-98657971D02*
X127125937Y-98586542D01*
X127125937Y-98586542D02*
X127197366Y-98515114D01*
X127197366Y-97943685D02*
X127197366Y-98515114D01*
X127197366Y-98515114D02*
X127268794Y-98586542D01*
X127268794Y-98586542D02*
X127340223Y-98586542D01*
X127340223Y-98586542D02*
X127483080Y-98515114D01*
X127483080Y-98515114D02*
X127554509Y-98372257D01*
X127554509Y-98372257D02*
X127554509Y-98015114D01*
X127554509Y-98015114D02*
X127411652Y-97800828D01*
X127411652Y-97800828D02*
X127197366Y-97657971D01*
X127197366Y-97657971D02*
X126911652Y-97586542D01*
X126911652Y-97586542D02*
X126625937Y-97657971D01*
X126625937Y-97657971D02*
X126411652Y-97800828D01*
X126411652Y-97800828D02*
X126268794Y-98015114D01*
X126268794Y-98015114D02*
X126197366Y-98300828D01*
X126197366Y-98300828D02*
X126268794Y-98586542D01*
X126268794Y-98586542D02*
X126411652Y-98800828D01*
X126411652Y-98800828D02*
X126625937Y-98943685D01*
X126625937Y-98943685D02*
X126911652Y-99015114D01*
X126911652Y-99015114D02*
X127197366Y-98943685D01*
X127197366Y-98943685D02*
X127411652Y-98800828D01*
X128840223Y-97800828D02*
X128840223Y-99015114D01*
X128840223Y-99015114D02*
X128768794Y-99157971D01*
X128768794Y-99157971D02*
X128697365Y-99229400D01*
X128697365Y-99229400D02*
X128554508Y-99300828D01*
X128554508Y-99300828D02*
X128340223Y-99300828D01*
X128340223Y-99300828D02*
X128197365Y-99229400D01*
X128840223Y-98729400D02*
X128697365Y-98800828D01*
X128697365Y-98800828D02*
X128411651Y-98800828D01*
X128411651Y-98800828D02*
X128268794Y-98729400D01*
X128268794Y-98729400D02*
X128197365Y-98657971D01*
X128197365Y-98657971D02*
X128125937Y-98515114D01*
X128125937Y-98515114D02*
X128125937Y-98086542D01*
X128125937Y-98086542D02*
X128197365Y-97943685D01*
X128197365Y-97943685D02*
X128268794Y-97872257D01*
X128268794Y-97872257D02*
X128411651Y-97800828D01*
X128411651Y-97800828D02*
X128697365Y-97800828D01*
X128697365Y-97800828D02*
X128840223Y-97872257D01*
X129554508Y-98800828D02*
X129554508Y-97800828D01*
X129554508Y-97943685D02*
X129625937Y-97872257D01*
X129625937Y-97872257D02*
X129768794Y-97800828D01*
X129768794Y-97800828D02*
X129983080Y-97800828D01*
X129983080Y-97800828D02*
X130125937Y-97872257D01*
X130125937Y-97872257D02*
X130197366Y-98015114D01*
X130197366Y-98015114D02*
X130197366Y-98800828D01*
X130197366Y-98015114D02*
X130268794Y-97872257D01*
X130268794Y-97872257D02*
X130411651Y-97800828D01*
X130411651Y-97800828D02*
X130625937Y-97800828D01*
X130625937Y-97800828D02*
X130768794Y-97872257D01*
X130768794Y-97872257D02*
X130840223Y-98015114D01*
X130840223Y-98015114D02*
X130840223Y-98800828D01*
X132197366Y-98800828D02*
X132197366Y-98015114D01*
X132197366Y-98015114D02*
X132125937Y-97872257D01*
X132125937Y-97872257D02*
X131983080Y-97800828D01*
X131983080Y-97800828D02*
X131697366Y-97800828D01*
X131697366Y-97800828D02*
X131554508Y-97872257D01*
X132197366Y-98729400D02*
X132054508Y-98800828D01*
X132054508Y-98800828D02*
X131697366Y-98800828D01*
X131697366Y-98800828D02*
X131554508Y-98729400D01*
X131554508Y-98729400D02*
X131483080Y-98586542D01*
X131483080Y-98586542D02*
X131483080Y-98443685D01*
X131483080Y-98443685D02*
X131554508Y-98300828D01*
X131554508Y-98300828D02*
X131697366Y-98229400D01*
X131697366Y-98229400D02*
X132054508Y-98229400D01*
X132054508Y-98229400D02*
X132197366Y-98157971D01*
X132911651Y-98800828D02*
X132911651Y-97800828D01*
X132911651Y-97300828D02*
X132840223Y-97372257D01*
X132840223Y-97372257D02*
X132911651Y-97443685D01*
X132911651Y-97443685D02*
X132983080Y-97372257D01*
X132983080Y-97372257D02*
X132911651Y-97300828D01*
X132911651Y-97300828D02*
X132911651Y-97443685D01*
X133840223Y-98800828D02*
X133697366Y-98729400D01*
X133697366Y-98729400D02*
X133625937Y-98586542D01*
X133625937Y-98586542D02*
X133625937Y-97300828D01*
X134411651Y-98657971D02*
X134483080Y-98729400D01*
X134483080Y-98729400D02*
X134411651Y-98800828D01*
X134411651Y-98800828D02*
X134340223Y-98729400D01*
X134340223Y-98729400D02*
X134411651Y-98657971D01*
X134411651Y-98657971D02*
X134411651Y-98800828D01*
X135768795Y-98729400D02*
X135625937Y-98800828D01*
X135625937Y-98800828D02*
X135340223Y-98800828D01*
X135340223Y-98800828D02*
X135197366Y-98729400D01*
X135197366Y-98729400D02*
X135125937Y-98657971D01*
X135125937Y-98657971D02*
X135054509Y-98515114D01*
X135054509Y-98515114D02*
X135054509Y-98086542D01*
X135054509Y-98086542D02*
X135125937Y-97943685D01*
X135125937Y-97943685D02*
X135197366Y-97872257D01*
X135197366Y-97872257D02*
X135340223Y-97800828D01*
X135340223Y-97800828D02*
X135625937Y-97800828D01*
X135625937Y-97800828D02*
X135768795Y-97872257D01*
X136625937Y-98800828D02*
X136483080Y-98729400D01*
X136483080Y-98729400D02*
X136411651Y-98657971D01*
X136411651Y-98657971D02*
X136340223Y-98515114D01*
X136340223Y-98515114D02*
X136340223Y-98086542D01*
X136340223Y-98086542D02*
X136411651Y-97943685D01*
X136411651Y-97943685D02*
X136483080Y-97872257D01*
X136483080Y-97872257D02*
X136625937Y-97800828D01*
X136625937Y-97800828D02*
X136840223Y-97800828D01*
X136840223Y-97800828D02*
X136983080Y-97872257D01*
X136983080Y-97872257D02*
X137054509Y-97943685D01*
X137054509Y-97943685D02*
X137125937Y-98086542D01*
X137125937Y-98086542D02*
X137125937Y-98515114D01*
X137125937Y-98515114D02*
X137054509Y-98657971D01*
X137054509Y-98657971D02*
X136983080Y-98729400D01*
X136983080Y-98729400D02*
X136840223Y-98800828D01*
X136840223Y-98800828D02*
X136625937Y-98800828D01*
X137768794Y-98800828D02*
X137768794Y-97800828D01*
X137768794Y-97943685D02*
X137840223Y-97872257D01*
X137840223Y-97872257D02*
X137983080Y-97800828D01*
X137983080Y-97800828D02*
X138197366Y-97800828D01*
X138197366Y-97800828D02*
X138340223Y-97872257D01*
X138340223Y-97872257D02*
X138411652Y-98015114D01*
X138411652Y-98015114D02*
X138411652Y-98800828D01*
X138411652Y-98015114D02*
X138483080Y-97872257D01*
X138483080Y-97872257D02*
X138625937Y-97800828D01*
X138625937Y-97800828D02*
X138840223Y-97800828D01*
X138840223Y-97800828D02*
X138983080Y-97872257D01*
X138983080Y-97872257D02*
X139054509Y-98015114D01*
X139054509Y-98015114D02*
X139054509Y-98800828D01*
M02*
